<?xml version="1.0" encoding="UTF-8" standalone="no"?>
<!-- Created with Inkscape (http://www.inkscape.org/) -->

<svg
   xmlns:dc="http://purl.org/dc/elements/1.1/"
   xmlns:cc="http://creativecommons.org/ns#"
   xmlns:rdf="http://www.w3.org/1999/02/22-rdf-syntax-ns#"
   xmlns:svg="http://www.w3.org/2000/svg"
   xmlns="http://www.w3.org/2000/svg"
   xmlns:sodipodi="http://sodipodi.sourceforge.net/DTD/sodipodi-0.dtd"
   xmlns:inkscape="http://www.inkscape.org/namespaces/inkscape"
   id="svg2"
   version="1.1"
   inkscape:version="0.48+devel r10785"
   width="600"
   height="150"
   sodipodi:docname="AhnLab.svg">
  <metadata
     id="metadata8">
    <rdf:RDF>
      <cc:Work
         rdf:about="">
        <dc:format>image/svg+xml</dc:format>
        <dc:type
           rdf:resource="http://purl.org/dc/dcmitype/StillImage" />
        <dc:title></dc:title>
      </cc:Work>
    </rdf:RDF>
  </metadata>
  <defs
     id="defs6" />
  <sodipodi:namedview
     pagecolor="#ffffff"
     bordercolor="#666666"
     borderopacity="1"
     objecttolerance="10"
     gridtolerance="10"
     guidetolerance="10"
     inkscape:pageopacity="0"
     inkscape:pageshadow="2"
     inkscape:window-width="1920"
     inkscape:window-height="1028"
     id="namedview4"
     showgrid="false"
     showguides="true"
     inkscape:guide-bbox="true"
     inkscape:zoom="0.735"
     inkscape:cx="300"
     inkscape:cy="75"
     inkscape:window-x="-8"
     inkscape:window-y="-8"
     inkscape:window-maximized="1"
     inkscape:current-layer="svg2" />
  <path
     style="fill:#1f4787;fill-opacity:1"
     d="M 429.33646,136.01206 C 413.00723,131.7316 405.62226,122.57024 405.5468,106.5 405.48104,92.496331 411.22147,84.317213 424.5,79.494961 c 3.89514,-1.414564 8.93264,-1.912492 22.79698,-2.253351 l 17.79698,-0.437543 -0.29698,-5.550213 c -0.43042,-8.044068 -2.87038,-9.641141 -15.4345,-10.102653 -12.2474,-0.449877 -16.06514,0.318988 -19.42077,3.9112 l -2.71608,2.907575 -9.70967,-2.915176 c -5.34032,-1.603346 -9.9615,-3.167003 -10.26929,-3.474793 -1.17252,-1.172527 3.25231,-8.785233 7.24614,-12.466617 9.42952,-8.691824 29.17327,-11.945204 48.00719,-7.910634 7.42526,1.590627 13.75504,5.144027 18.24057,10.239861 C 486.89582,58.435343 487.5,61.881741 487.5,90 c 0,23.46269 -0.0975,24.7117 -2.30361,29.5 -4.19336,9.10168 -11.04836,14.07379 -23.42723,16.99236 -8.71326,2.05432 -23.60484,1.83379 -32.4327,-0.4803 z m 31.29782,-21.32294 C 464.56029,112.6589 465,111.46627 465,102.84782 l 0,-6.988606 -15.43056,0.320393 c -13.82192,0.286992 -15.72449,0.539251 -18.25,2.419735 -2.06918,1.540698 -2.90448,3.111958 -3.13903,5.904678 -0.62103,7.39466 1.044,9.7222 8.31959,11.62989 4.96541,1.30196 20.63687,0.36379 24.13428,-1.44479 z M 530,137.30962 c -8.49182,-1.4199 -15.60903,-4.78858 -20.52402,-9.71434 C 501.00946,119.11022 501,119.03566 501,60.791385 501,16.505764 501.16884,11.149189 502.58179,10.606989 505.53009,9.4756175 521.54535,9.9453538 522.8,11.2 c 0.826,0.826001 1.2,5.845998 1.2,16.106989 0,13.679418 0.14145,14.85271 1.71767,14.247855 4.3066,-1.652595 17.05593,-2.488459 24.70287,-1.619554 15.86749,1.802988 25.96635,7.832042 30.71619,18.33766 C 583.41455,63.311005 583.5,64.385849 583.5,88 c 0,20.8001 -0.26546,25.25987 -1.75785,29.53168 -3.49726,10.01056 -11.54391,16.25953 -24.46176,18.99683 -6.26721,1.32802 -21.41552,1.76176 -27.28039,0.78111 z m 26.63428,-22.6205 c 1.71785,-0.88833 3.40289,-2.3436 3.74454,-3.23392 C 560.72047,110.56487 561,100.17777 561,88.372758 c 0,-21.293482 -0.0189,-21.482604 -2.38827,-23.851939 -3.06271,-3.062711 -7.22176,-3.801314 -18.97421,-3.369618 -7.74528,0.284504 -10.01565,0.73721 -12.31659,2.45591 l -2.82093,2.107111 -0.26834,23.107816 -0.26835,23.107812 2.54339,1.6665 c 4.00864,2.62656 8.31109,3.34752 17.99876,3.01605 5.79621,-0.19832 10.11852,-0.88371 12.12882,-1.92328 z M 17.352406,134.47597 C 16.704275,132.78697 48.187534,28.637342 51.087883,22.875791 54.894892,15.313158 62.983305,10.743521 72.5,10.778783 82.165464,10.814595 88.958252,14.561626 93.356976,22.283886 96.38402,27.598069 128.42141,132.45943 127.64006,134.49561 127.1769,135.70258 124.98766,136 116.56657,136 c -8.99367,0 -10.62248,-0.25051 -11.37833,-1.75 -0.48517,-0.9625 -2.8635,-8.8368 -5.285182,-17.49845 L 95.5,101.00309 l -23,0 -23,0 -4.403058,15.74846 C 42.67526,125.4132 40.296928,133.2875 39.811758,134.25 39.055909,135.74949 37.427099,136 28.433431,136 19.952414,136 17.824949,135.7074 17.352406,134.47597 z M 82.903392,57.454078 c -3.763166,-12.950257 -7.107464,-23.975257 -7.431773,-24.5 -0.812368,-1.314438 -5.199821,-1.202873 -6.03813,0.153539 -0.376499,0.609189 -3.726207,11.634189 -7.443795,24.5 L 55.230443,81 72.487978,81 89.745513,81 82.903392,57.454078 z M 136.66667,135.33333 C 136.3,134.96667 136,106.88981 136,72.940322 136,17.57646 136.16304,11.151412 137.58179,10.606989 140.53009,9.4756175 156.54535,9.9453538 157.8,11.2 c 0.82565,0.825655 1.2,5.835337 1.2,16.059017 0,8.172459 0.37058,14.629984 0.82352,14.350055 2.3864,-1.474877 18.36129,-2.512209 25.70416,-1.669102 14.86244,1.706503 24.83541,7.226683 29.79474,16.491816 C 217.44816,60.403148 217.5,61.392766 217.5,98 l 0,37.5 -10.5,0 -10.5,0 L 196,101 c -0.275,-18.975 -0.89243,-35.108415 -1.37208,-35.852034 -3.70564,-5.745079 -31.15758,-5.63408 -34.82756,0.140821 -0.42335,0.666167 -0.77663,16.136909 -0.78505,34.379426 -0.008,18.242517 -0.28845,33.880017 -0.6223,34.749997 -0.49874,1.2997 -2.43073,1.58179 -10.83333,1.58179 -5.62449,0 -10.52635,-0.3 -10.89301,-0.66667 z m 96.40391,-0.74829 c -0.93568,-1.12742 -1.14846,-9.8012 -0.89012,-36.283323 0.332,-34.031546 0.39159,-34.917393 2.6928,-40.028767 3.04009,-6.752578 9.27574,-12.436704 16.68424,-15.208578 8.09954,-3.030428 20.74913,-4.340885 30.27791,-3.136694 16.17549,2.044162 25.02791,7.019989 29.80792,16.754629 L 314.5,62.5 l 0,36.5 0,36.5 -11,0 -11,0 -0.5,-34.89281 -0.5,-34.892815 -2.82041,-2.107188 c -2.33731,-1.746253 -4.55465,-2.167104 -12.9452,-2.456993 -10.62571,-0.367112 -16.56494,0.736814 -18.86576,3.506585 -1.07742,1.297009 -1.47502,9.009259 -1.86863,36.245401 l -0.5,34.59782 -10.0999,0.28333 c -7.95775,0.22323 -10.36069,-0.0309 -11.32952,-1.19829 z M 356,134.62828 C 344.57603,132.08056 336.6846,125.77545 332.7468,116.04943 330.52168,110.55355 330.5,110.0175 330.5,60.5 l 0,-50 10.5,0 10.5,0 0.5,47.5 c 0.54278,51.56454 0.55635,51.68498 6.14503,54.575 2.06017,1.06535 6.99559,1.42886 19.55531,1.44031 9.23981,0.008 17.37936,0.38311 18.08789,0.83265 0.94309,0.59835 1.21101,3.47436 1,10.73468 L 396.5,135.5 379,135.67743 c -10.8307,0.10982 -19.59607,-0.29002 -23,-1.04915 z"
     id="path12"
     inkscape:connector-curvature="0" />
</svg>
