<svg id="레이어_1" data-name="레이어 1" xmlns="http://www.w3.org/2000/svg" viewBox="0 0 200 200"><defs><style>.cls-1{fill:#c23a32;}</style></defs><title>대지 1</title><path class="cls-1" d="M44.52,94.36a5.91,5.91,0,0,1,2.5,2,5.48,5.48,0,0,1,1,2.34,29.43,29.43,0,0,1,.18,3.9v11.89h-5.4V102.16a5.45,5.45,0,0,0-.55-2.64,2.78,2.78,0,0,0-2.73-1.41,3.74,3.74,0,0,0-3.16,1.4,6.5,6.5,0,0,0-1.07,4v11H30V87.21h5.29v9.65A6.55,6.55,0,0,1,38,94.4a7.51,7.51,0,0,1,3.17-.69A8.47,8.47,0,0,1,44.52,94.36Z"/><path class="cls-1" d="M61.2,102.17a8.58,8.58,0,0,0,2.12-.46,1.61,1.61,0,0,0,1.14-1.51,1.75,1.75,0,0,0-.88-1.71A5.46,5.46,0,0,0,61,98a3.34,3.34,0,0,0-2.68.93,3.86,3.86,0,0,0-.76,1.86h-5.1A7.71,7.71,0,0,1,54,96.44q2.11-2.68,7.23-2.68a12.88,12.88,0,0,1,5.93,1.32c1.72.88,2.59,2.54,2.59,5v9.28c0,.64,0,1.42,0,2.34a2.92,2.92,0,0,0,.31,1.41,1.82,1.82,0,0,0,.78.61v.78H65.09a6.65,6.65,0,0,1-.34-1.15c-.06-.36-.11-.77-.14-1.22a11.36,11.36,0,0,1-2.54,2,7.75,7.75,0,0,1-3.89,1,6.67,6.67,0,0,1-4.56-1.57,5.56,5.56,0,0,1-1.8-4.44,5.76,5.76,0,0,1,2.9-5.4,12.82,12.82,0,0,1,4.67-1.3Zm3.24,2.47a5.8,5.8,0,0,1-1,.51,8.47,8.47,0,0,1-1.42.36l-1.2.22a7.75,7.75,0,0,0-2.43.73,2.41,2.41,0,0,0-1.25,2.24,2.35,2.35,0,0,0,.76,2,2.92,2.92,0,0,0,1.86.6,5.5,5.5,0,0,0,3.19-1c1-.67,1.48-1.89,1.52-3.66Z"/><path class="cls-1" d="M79.73,114.47H74.44V87.12h5.29Z"/><path class="cls-1" d="M93.25,86.87l1.12.08v4.31a14.1,14.1,0,0,0-1.5-.08,1.68,1.68,0,0,0-1.44.46,1.66,1.66,0,0,0-.4,1.08v1.71H94.5v3.73H91v16.31H85.78V98.16h-3V94.43H85.7v-1.3c0-2.16.37-3.65,1.1-4.47q1.14-1.81,5.54-1.82C92.68,86.84,93,86.85,93.25,86.87Z"/><path class="cls-1" d="M109.64,101.5a4.85,4.85,0,0,0-.76-2,3.2,3.2,0,0,0-2.78-1.22,3.65,3.65,0,0,0-3.66,2.65,10.94,10.94,0,0,0-.52,3.74,10.05,10.05,0,0,0,.52,3.57,3.53,3.53,0,0,0,3.57,2.52,3.14,3.14,0,0,0,2.64-1,5,5,0,0,0,.95-2.6H115a8.84,8.84,0,0,1-1.75,4.57,8.49,8.49,0,0,1-7.37,3.47c-3.26,0-5.65-1-7.19-2.9a11.71,11.71,0,0,1-2.3-7.5q0-5.2,2.54-8.1a8.88,8.88,0,0,1,7-2.9,10.59,10.59,0,0,1,6.23,1.71q2.41,1.71,2.87,6Z"/><path class="cls-1" d="M124.07,114.47h-5.28V87.12h5.28Z"/><path class="cls-1" d="M134.5,94.25v12.19a6.37,6.37,0,0,0,.41,2.59,2.8,2.8,0,0,0,2.82,1.54,3.68,3.68,0,0,0,3.69-2.19,7.82,7.82,0,0,0,.52-3.13v-11h5.36v20.22h-5.14v-2.86l-.37.56a3.67,3.67,0,0,1-.7.82,7.47,7.47,0,0,1-2.39,1.52,8.28,8.28,0,0,1-2.72.41q-4.47,0-6-3.23a12.39,12.39,0,0,1-.87-5.25V94.25Z"/><path class="cls-1" d="M169.71,96.68A11.62,11.62,0,0,1,172,104.1a13,13,0,0,1-2.24,7.81,7.25,7.25,0,0,1-6.25,3.1,7.34,7.34,0,0,1-4-1,8.15,8.15,0,0,1-2-2.08v2.54h-5.21V87.16h5.28v9.72a7.78,7.78,0,0,1,2.23-2.15,6.63,6.63,0,0,1,3.66-.93A7.55,7.55,0,0,1,169.71,96.68ZM165.29,109a7.5,7.5,0,0,0,1.14-4.34,9.62,9.62,0,0,0-.56-3.57,3.91,3.91,0,0,0-3.93-2.67,4,4,0,0,0-4,2.62,9.61,9.61,0,0,0-.56,3.6,7.44,7.44,0,0,0,1.16,4.3,4,4,0,0,0,3.53,1.71A3.67,3.67,0,0,0,165.29,109Z"/></svg>